<svg width="198" height="73" viewBox="0 0 198 73" fill="none" xmlns="http://www.w3.org/2000/svg">
<path d="M3.79261 58V14.3636H21.0085C24.3182 14.3636 27.1378 14.9957 29.4673 16.2599C31.7969 17.5099 33.5724 19.25 34.794 21.4801C36.0298 23.696 36.6477 26.2528 36.6477 29.1506C36.6477 32.0483 36.0227 34.6051 34.7727 36.821C33.5227 39.0369 31.7116 40.7628 29.3395 41.9986C26.9815 43.2344 24.1264 43.8523 20.7741 43.8523H9.80114V36.4588H19.2827C21.0582 36.4588 22.5213 36.1534 23.6719 35.5426C24.8366 34.9176 25.7031 34.0582 26.2713 32.9645C26.8537 31.8565 27.1449 30.5852 27.1449 29.1506C27.1449 27.7017 26.8537 26.4375 26.2713 25.358C25.7031 24.2642 24.8366 23.419 23.6719 22.8224C22.5071 22.2116 21.0298 21.9062 19.2401 21.9062H13.0185V58H3.79261Z" fill="#FFC75A"/>
<path d="M104.018 14.3636V58H94.7926V14.3636H104.018ZM148.108 14.3636V58H140.139L121.154 30.5355H120.835V58H111.609V14.3636H119.706L138.541 41.8068H138.924V14.3636H148.108ZM184.665 28.4688C184.366 27.4318 183.947 26.5156 183.408 25.7202C182.868 24.9105 182.207 24.2287 181.426 23.6747C180.659 23.1065 179.778 22.6733 178.784 22.375C177.804 22.0767 176.717 21.9276 175.524 21.9276C173.294 21.9276 171.334 22.4815 169.643 23.5895C167.967 24.6974 166.661 26.3097 165.723 28.4261C164.786 30.5284 164.317 33.0994 164.317 36.1392C164.317 39.179 164.778 41.7642 165.702 43.8949C166.625 46.0256 167.932 47.652 169.622 48.7741C171.312 49.8821 173.308 50.4361 175.609 50.4361C177.697 50.4361 179.48 50.0668 180.957 49.3281C182.449 48.5753 183.585 47.517 184.366 46.1534C185.162 44.7898 185.56 43.1776 185.56 41.3168L187.435 41.5938H176.185V34.6477H194.445V40.1449C194.445 43.9801 193.635 47.2756 192.016 50.0312C190.396 52.7727 188.166 54.8892 185.325 56.3807C182.484 57.858 179.232 58.5966 175.567 58.5966C171.476 58.5966 167.882 57.6946 164.786 55.8906C161.689 54.0724 159.274 51.4943 157.541 48.1562C155.822 44.804 154.963 40.8267 154.963 36.2244C154.963 32.6875 155.474 29.5341 156.497 26.7642C157.534 23.9801 158.983 21.6222 160.844 19.6903C162.705 17.7585 164.871 16.2884 167.342 15.2798C169.814 14.2713 172.491 13.767 175.375 13.767C177.847 13.767 180.148 14.1293 182.278 14.8537C184.409 15.5639 186.298 16.5724 187.946 17.8793C189.608 19.1861 190.964 20.7415 192.016 22.5455C193.067 24.3352 193.741 26.3097 194.04 28.4688H184.665Z" fill="#FFC75A"/>
<path fill-rule="evenodd" clip-rule="evenodd" d="M51.1916 21.7878L47.5129 25.4665L63.6935 41.647L80.7729 24.5675L77.0943 20.8889L63.6935 34.2897L51.1916 21.7878Z" fill="url(#paint0_linear_108_1488)"/>
<path fill-rule="evenodd" clip-rule="evenodd" d="M64.1195 57.3307C76.3481 57.3307 86.2614 47.4175 86.2614 35.1888C86.2614 22.9602 76.3481 13.0469 64.1195 13.0469C51.8908 13.0469 41.9775 22.9602 41.9775 35.1888C41.9775 47.4175 51.8908 57.3307 64.1195 57.3307ZM63.8888 51.7953C72.9329 51.7953 80.2646 44.4636 80.2646 35.4195C80.2646 26.3753 72.9329 19.0437 63.8888 19.0437C54.8447 19.0437 47.513 26.3753 47.513 35.4195C47.513 44.4636 54.8447 51.7953 63.8888 51.7953Z" fill="url(#paint1_linear_108_1488)"/>
<defs>
<linearGradient id="paint0_linear_108_1488" x1="63.7577" y1="8.41841" x2="63.7577" y2="39.6914" gradientUnits="userSpaceOnUse">
<stop offset="0.458333" stop-color="#FFC75A"/>
<stop offset="1" stop-color="#FDB11C"/>
</linearGradient>
<linearGradient id="paint1_linear_108_1488" x1="64.1195" y1="13.0469" x2="64.1195" y2="57.3307" gradientUnits="userSpaceOnUse">
<stop stop-color="#FFC75A"/>
<stop offset="1" stop-color="#FEB62A"/>
</linearGradient>
</defs>
</svg>
