<svg width="68" height="63" viewBox="0 0 68 63" fill="none" xmlns="http://www.w3.org/2000/svg">
<path fill-rule="evenodd" clip-rule="evenodd" d="M34.0772 6.97503C29.4364 6.97424 24.8766 8.10624 20.8529 10.2581C16.8291 12.4099 13.4822 15.5062 11.1461 19.2381C8.81002 22.9699 7.56654 27.2067 7.53976 31.5256C7.51298 35.8445 8.70383 40.0944 10.9935 43.8511C12.541 41.9793 14.5304 40.4637 16.8078 39.4217C19.0852 38.3796 21.5896 37.8389 24.1273 37.8414H44.0271C46.5648 37.8389 49.0692 38.3796 51.3466 39.4217C53.6239 40.4637 55.6133 41.9793 57.1609 43.8511C59.4505 40.0944 60.6414 35.8445 60.6146 31.5256C60.5878 27.2067 59.3443 22.9699 57.0083 19.2381C54.6722 15.5062 51.3253 12.4099 47.3015 10.2581C43.2778 8.10624 38.7179 6.97424 34.0772 6.97503ZM60.4211 50.4225C64.8556 45.0424 67.2541 38.4487 67.2434 31.6681C67.2434 14.6206 52.3949 0.801758 34.0772 0.801758C15.7595 0.801758 0.910926 14.6206 0.910926 31.6681C0.899976 38.4488 3.29858 45.0425 7.73323 50.4225L7.71664 50.4781L8.89404 51.7528C12.0047 55.1374 15.8669 57.8539 20.2145 59.7152C24.562 61.5766 29.2916 62.5384 34.0772 62.5345C40.8011 62.546 47.3682 60.6452 52.899 57.0866C55.2569 55.5704 57.395 53.7777 59.2603 51.7528L60.4377 50.4781L60.4211 50.4225ZM34.0772 13.1483C31.4383 13.1483 28.9075 14.1239 27.0416 15.8605C25.1756 17.597 24.1273 19.9523 24.1273 22.4082C24.1273 24.8641 25.1756 27.2194 27.0416 28.9559C28.9075 30.6925 31.4383 31.6681 34.0772 31.6681C36.7161 31.6681 39.2468 30.6925 41.1128 28.9559C42.9788 27.2194 44.0271 24.8641 44.0271 22.4082C44.0271 19.9523 42.9788 17.597 41.1128 15.8605C39.2468 14.1239 36.7161 13.1483 34.0772 13.1483Z" fill="#FFC75A"/>
</svg>
